<svg width="113" height="28" viewBox="0 0 113 28" fill="none" xmlns="http://www.w3.org/2000/svg">
<path d="M4.19117 5.02441H0.286941C0.274629 5.02441 0.264648 5.03443 0.264648 5.04679V22.5103C0.264648 22.5226 0.274629 22.5327 0.286941 22.5327H4.19117C4.20349 22.5327 4.21347 22.5226 4.21347 22.5103V5.04679C4.21347 5.03443 4.20349 5.02441 4.19117 5.02441Z" fill="#F9D923"/>
<path d="M12.8941 22.5327H9.24404C9.22917 22.5327 9.21729 22.5207 9.21729 22.5058V5.05127C9.21729 5.03635 9.22917 5.02441 9.24404 5.02441H13.1572C13.1661 5.02441 13.1735 5.02889 13.178 5.03486L22.1115 16.1685C22.1204 16.1804 22.1383 16.1819 22.1501 16.1729C22.1561 16.167 22.1606 16.1595 22.1606 16.1521V5.05127C22.1606 5.03635 22.1724 5.02441 22.1873 5.02441H25.8374C25.8523 5.02441 25.8641 5.03635 25.8641 5.05127V22.5058C25.8641 22.5207 25.8523 22.5327 25.8374 22.5327H21.9287C21.9198 22.5327 21.9124 22.5282 21.9079 22.5222L12.9699 11.3826C12.961 11.3707 12.9432 11.3692 12.9313 11.3782C12.9253 11.3841 12.9209 11.3916 12.9209 11.3991V22.5043C12.9209 22.5192 12.9075 22.5312 12.8926 22.5312L12.8941 22.5327Z" fill="#F9D923"/>
<path d="M44.2353 19.2253V22.4969C44.2353 22.5163 44.2189 22.5327 44.1996 22.5327H30.8848C30.8655 22.5327 30.8491 22.5163 30.8491 22.4969V5.05875C30.8491 5.03936 30.8655 5.02295 30.8848 5.02295H34.7831C34.8024 5.02295 34.8187 5.03936 34.8187 5.05875V19.1552C34.8187 19.1746 34.8351 19.191 34.8544 19.191H44.1996C44.2189 19.191 44.2353 19.2074 44.2353 19.2268V19.2253Z" fill="#F9D923"/>
<path d="M60.8433 18.545L52.5578 18.536C52.5474 18.536 52.537 18.542 52.5325 18.5524L50.6555 22.5177C50.651 22.5282 50.6406 22.5342 50.6302 22.5342H46.8627C46.8478 22.5342 46.8345 22.5222 46.8345 22.5058C46.8345 22.5013 46.8345 22.4969 46.8374 22.4939L55.3266 5.04082C55.331 5.03038 55.3414 5.02441 55.3519 5.02441H59.0465C59.0569 5.02441 59.0673 5.03038 59.0718 5.04082L67.1894 22.4939C67.1968 22.5073 67.1894 22.5252 67.176 22.5312C67.1716 22.5327 67.1671 22.5342 67.1641 22.5342H62.6981C62.6862 22.5342 62.6758 22.5282 62.6714 22.5177L60.8701 18.5629C60.8656 18.5524 60.8552 18.5465 60.8433 18.5465V18.545ZM54.1897 15.1257C54.1822 15.1406 54.1896 15.16 54.2045 15.1674C54.209 15.1689 54.2134 15.1704 54.2179 15.1704L59.268 15.1973C59.2843 15.1973 59.2992 15.1839 59.2992 15.166C59.2992 15.1615 59.2992 15.157 59.2962 15.154L56.7994 9.69239C56.792 9.67747 56.7741 9.67001 56.7578 9.67747C56.7519 9.68045 56.7459 9.68493 56.7429 9.69089L54.1897 15.1257Z" fill="#F9D923"/>
<path d="M109.668 0H72.9308C71.2365 0 69.8633 1.37846 69.8633 3.07916V24.4319C69.8633 26.1326 71.2365 27.5111 72.9308 27.5111H109.668C111.362 27.5111 112.736 26.1326 112.736 24.4319V3.07916C112.736 1.37846 111.362 0 109.668 0ZM89.6564 22.5328H74.9609C74.9372 22.5328 74.9193 22.5149 74.9193 22.491V19.0225C74.9193 18.9345 74.955 18.8986 75.01 18.8375C78.0775 15.3675 81.145 11.8989 84.214 8.4289C84.2333 8.40653 84.2273 8.39608 84.1991 8.39459C82.2804 8.35282 80.8507 8.34685 79.91 8.37371C79.0717 8.39907 78.1949 8.36774 77.4919 8.38117C76.7354 8.39459 75.9775 8.39459 75.221 8.38117C75.1824 8.38117 75.163 8.36177 75.163 8.32298V5.09166C75.163 5.0469 75.1853 5.02452 75.2299 5.02452H89.4305C89.4543 5.02452 89.4751 5.04392 89.4751 5.06928C89.4498 6.09417 89.4439 7.11907 89.4573 8.14545C89.4617 8.44382 89.5197 8.56466 89.3086 8.80187C86.259 12.2435 83.2123 15.6897 80.1656 19.1388C80.1358 19.1731 80.1433 19.1896 80.1879 19.1896H89.6475C89.6861 19.1896 89.7055 19.209 89.7055 19.2477L89.7084 22.4806C89.7084 22.5149 89.6906 22.5313 89.6564 22.5313V22.5328ZM107.819 22.497C107.819 22.5164 107.803 22.5328 107.784 22.5328H93.7212C93.7018 22.5328 93.6855 22.5164 93.6855 22.497L93.6825 5.05883C93.6825 5.03944 93.6989 5.02303 93.7182 5.02303H107.277C107.296 5.02303 107.312 5.03944 107.312 5.05883V8.33641C107.312 8.3558 107.296 8.37221 107.277 8.37221L97.6893 8.3931C97.67 8.3931 97.6536 8.40951 97.6536 8.4289V11.6901C97.6536 11.7095 97.67 11.7259 97.6893 11.7259L106.572 11.7289C106.592 11.7289 106.608 11.7453 106.608 11.7647V15.0378C106.608 15.0572 106.592 15.0736 106.572 15.0736H97.6893C97.67 15.0736 97.6536 15.09 97.6536 15.1094V19.1552C97.6536 19.1746 97.67 19.191 97.6893 19.191H107.785C107.804 19.191 107.821 19.2075 107.821 19.2269V22.4985L107.819 22.497Z" fill="#F9D923"/>
</svg>
